<?xml version="1.0" encoding="UTF-8"?>
<svg version="1.1" xmlns="http://www.w3.org/2000/svg" width="128" height="128">
<path d="M0 0 C2.3125 2.625 2.3125 2.625 4 5 C4.99 5.66 5.98 6.32 7 7 C7.3171964 9.62573456 7.44407456 12.01139844 7.43359375 14.640625 C7.4388356 15.40042664 7.44407745 16.16022827 7.44947815 16.9430542 C7.4559081 18.55365782 7.45454876 20.16430834 7.44604492 21.77490234 C7.43757905 24.22710273 7.46620635 26.67693892 7.49804688 29.12890625 C7.49966022 30.6953118 7.49907881 32.26172146 7.49609375 33.828125 C7.51294472 34.92063568 7.51294472 34.92063568 7.53013611 36.03521729 C7.46090191 41.15579825 6.21622463 44.05301818 3 48 C-7.51685357 55.48349511 -20.87120082 56.38940106 -33.28515625 54.5 C-40.25699894 52.94874297 -47.14079493 50.8090171 -51.57202148 44.90576172 C-53.36812795 41.25090462 -53.46764099 38.01813467 -53.46875 34.03125 C-53.47636353 33.27332153 -53.48397705 32.51539307 -53.49182129 31.73449707 C-53.50259026 30.13764733 -53.50548843 28.54072734 -53.50097656 26.94384766 C-53.50000277 24.50694142 -53.54168305 22.07317197 -53.5859375 19.63671875 C-53.59114414 18.0807357 -53.5938327 16.52474176 -53.59375 14.96875 C-53.61014526 14.24465942 -53.62654053 13.52056885 -53.64343262 12.77453613 C-53.58997454 8.84386357 -53.15932798 7.19080338 -50.60742188 4.13476562 C-49.74697266 3.43029297 -48.88652344 2.72582031 -48 2 C-46.8553125 0.948125 -46.8553125 0.948125 -45.6875 -0.125 C-33.19991563 -8.83726817 -12.56759191 -8.54362976 0 0 Z M-46 14 C-46.4598904 18.6908821 -46.7621616 21.9043927 -44 25.875 C-35.23662825 32.08238832 -24.63689576 32.89887021 -14.1875 31.375 C-9.15516637 30.29927422 -4.96077192 28.30417337 -1 25 C0.20272819 22.59454362 0.10071472 21.05003047 0.0625 18.375 C0.05347656 17.55773437 0.04445312 16.74046875 0.03515625 15.8984375 C0.02355469 15.27195312 0.01195312 14.64546875 0 14 C-0.61488281 14.20496094 -1.22976562 14.40992187 -1.86328125 14.62109375 C-8.94923603 16.98307868 -14.57774976 18.20856194 -22.0625 18.25 C-22.96677734 18.270625 -23.87105469 18.29125 -24.80273438 18.3125 C-31.35481932 18.34996725 -36.8415539 17.1893509 -43 15 C-43.99 14.67 -44.98 14.34 -46 14 Z M-46 34 C-46 37.37141893 -45.97913565 39.98944824 -43.5390625 42.5078125 C-34.47486775 48.68626361 -23.48923972 48.80223031 -13 47 C-7.46120341 45.44796005 -3.09335052 44.08402404 0 39 C0.25124826 36.33238236 0.25124826 36.33238236 0 34 C-2.74380894 34.49887435 -5.29241642 35.09954602 -7.9375 36 C-18.32001488 38.97933036 -30.57759058 39.00613047 -40.65234375 34.92578125 C-43.04454006 33.81657533 -43.04454006 33.81657533 -46 34 Z " fill="#66E4A0" transform="translate(87,29)"/>
<path d="M0 0 C2.125 0.9375 2.125 0.9375 4 2 C3.52354792 6.28806873 2.34097516 8.26647487 -1 11 C-1.66 11 -2.32 11 -3 11 C-3 11.66 -3 12.32 -3 13 C-2.401875 13.268125 -1.80375 13.53625 -1.1875 13.8125 C1.07573361 15.04111253 2.51540577 15.89031346 4 18 C3.6875 20.6875 3.6875 20.6875 3 23 C2.01 23.33 1.02 23.66 0 24 C-2.62890625 22.41796875 -2.62890625 22.41796875 -5.5625 20.1875 C-6.53316406 19.45917969 -7.50382813 18.73085937 -8.50390625 17.98046875 C-11 16 -11 16 -13 14 C-12.90230004 10.52877778 -12.26435101 9.26295233 -9.78515625 6.796875 C-8.88667969 6.12140625 -7.98820313 5.4459375 -7.0625 4.75 C-6.16660156 4.06421875 -5.27070313 3.3784375 -4.34765625 2.671875 C-2 1 -2 1 0 0 Z " fill="#D8FAEE" transform="translate(19,52)"/>
<path d="M0 0 C4.10110762 1.40398279 6.98089159 3.37087038 10.3125 6.125 C11.19550781 6.84945312 12.07851562 7.57390625 12.98828125 8.3203125 C13.98408203 9.15175781 13.98408203 9.15175781 15 10 C14.70032307 13.36108248 14.24562389 14.74766507 11.85546875 17.203125 C10.97503906 17.87859375 10.09460938 18.5540625 9.1875 19.25 C8.31480469 19.93578125 7.44210938 20.6215625 6.54296875 21.328125 C4.23626838 22.84466534 2.73983105 23.78604356 0 24 C-0.66 23.34 -1.32 22.68 -2 22 C-1.9375 19.625 -1.9375 19.625 -1 17 C0.62332967 15.61423077 2.28724465 14.27358732 4 13 C4 12.34 4 11.68 4 11 C2.04072937 9.2856382 0.04119788 7.61594832 -2 6 C-1.125 1.125 -1.125 1.125 0 0 Z " fill="#D8F9ED" transform="translate(107,52)"/>
</svg>
