<svg xmlns="http://www.w3.org/2000/svg" viewBox="0 0 64 64">
  <defs>
    <linearGradient id="bg" x1="0" y1="0" x2="1" y2="1">
      <stop offset="0%" stop-color="#10181d" />
      <stop offset="100%" stop-color="#162329" />
    </linearGradient>
  </defs>
  <rect x="2" y="2" width="60" height="60" rx="14" fill="url(#bg)" />
  <ellipse cx="32" cy="18" rx="13" ry="6" fill="#67e19d" />
  <path d="M19 18v16c0 3.3 5.8 6 13 6s13-2.7 13-6V18" fill="none" stroke="#67e19d" stroke-width="3" />
  <path d="M19 26c0 3.3 5.8 6 13 6s13-2.7 13-6" fill="none" stroke="#67e19d" stroke-width="3" />
  <path d="M19 34c0 3.3 5.8 6 13 6s13-2.7 13-6" fill="none" stroke="#67e19d" stroke-width="3" />
  <path d="M10 36l-5-4 5-4" fill="none" stroke="#d9fff0" stroke-linecap="round" stroke-linejoin="round" stroke-width="3" />
  <path d="M54 28l5 4-5 4" fill="none" stroke="#d9fff0" stroke-linecap="round" stroke-linejoin="round" stroke-width="3" />
</svg>
